Coordinates
version=1
nRows=30
nColumns=21
inDegrees=yes

Units are S.I. units (second, meters, Newtons, ...)
If the header above contains a line with 'inDegrees', this indicates whether rotational values are in degrees (yes) or radians (no).

endheader
time	sternoclavicular_r2	sternoclavicular_r3	unrotscap_r3	unrotscap_r2	acromioclavicular_r2	acromioclavicular_r3	acromioclavicular_r1	unrothum_r1	unrothum_r3	unrothum_r2	elv_angle	shoulder_elev	shoulder1_r2	shoulder_rot	elbow_flexion	pro_sup	deviation	flexion	wrist_hand_r1	wrist_hand_r3
      0.00000000	    -10.15501341	      4.30118439	     -4.30118439	     10.15501341	     -2.05618365	     16.61735296	      7.46938579	     -7.46938579	    -16.61735296	      2.05618365	    124.43643267	     41.96277128	   -124.43643267	     19.95481156	      0.96781731	      0.00000000	      0.00000000	     -0.00000000	     -0.00000000	      0.00000000
      0.02010050	    -10.15505736	      4.30120301	     -4.30120301	     10.15505736	     -2.05619255	     16.61742488	      7.46941812	     -7.46941812	    -16.61742488	      2.05619255	    124.43630725	     41.96295289	   -124.43630725	     19.95481779	      0.96748799	      0.00000000	      0.00000000	     -0.00000000	     -0.00000000	      0.00000000
      0.04020101	    -10.15506650	      4.30120688	     -4.30120688	     10.15506650	     -2.05619440	     16.61743983	      7.46942484	     -7.46942484	    -16.61743983	      2.05619440	    124.43633034	     41.96299066	   -124.43633034	     19.95481727	      0.96749572	      0.00000000	      0.00000000	     -0.00000000	     -0.00000000	      0.00000000
      0.06030151	    -10.15511870	      4.30122899	     -4.30122899	     10.15511870	     -2.05620497	     16.61752526	      7.46946324	     -7.46946324	    -16.61752526	      2.05620497	    124.43642477	     41.96320638	   -124.43642477	     19.95481583	      0.96748644	      0.00000000	      0.00000000	     -0.00000000	     -0.00000000	      0.00000000
      0.08040201	    -10.15525285	      4.30128581	     -4.30128581	     10.15525285	     -2.05623213	     16.61774478	      7.46956191	     -7.46956191	    -16.61774478	      2.05623213	    124.43666899	     41.96376072	   -124.43666899	     19.95481211	      0.96746476	      0.00000000	      0.00000000	     -0.00000000	     -0.00000000	      0.00000000
      0.10050251	    -10.15550805	      4.30139389	     -4.30139389	     10.15550805	     -2.05628380	     16.61816236	      7.46974961	     -7.46974961	    -16.61816236	      2.05628380	    124.43713486	     41.96481522	   -124.43713486	     19.95480503	      0.96742530	      0.00000000	      0.00000000	     -0.00000000	     -0.00000000	      0.00000000
      0.12060302	    -10.15592208	      4.30156926	     -4.30156926	     10.15592208	     -2.05636763	     16.61883988	      7.47005415	     -7.47005415	    -16.61883988	      2.05636763	    124.43789214	     41.96652611	   -124.43789214	     19.95479352	      0.96736329	      0.00000000	      0.00000000	     -0.00000000	     -0.00000000	      0.00000000
      0.14070352	    -10.15653156	      4.30182740	     -4.30182740	     10.15653156	     -2.05649104	     16.61983720	      7.47050244	     -7.47050244	    -16.61983720	      2.05649104	    124.43900839	     41.96904459	   -124.43900839	     19.95477658	      0.96727415	      0.00000000	      0.00000000	     -0.00000000	     -0.00000000	      0.00000000
      0.16080402	    -10.15737187	      4.30218332	     -4.30218332	     10.15737187	     -2.05666119	     16.62121227	      7.47112052	     -7.47112052	    -16.62121227	      2.05666119	    124.44054896	     41.97251695	   -124.44054896	     19.95475319	      0.96715349	      0.00000000	      0.00000000	     -0.00000000	     -0.00000000	      0.00000000
      0.18090452	    -10.15847727	      4.30265152	     -4.30265152	     10.15847727	     -2.05688501	     16.62302111	      7.47193358	     -7.47193358	    -16.62302111	      2.05688501	    124.44257700	     41.97708470	   -124.44257700	     19.95472239	      0.96699704	      0.00000000	      0.00000000	     -0.00000000	     -0.00000000	      0.00000000
      0.20100503	    -10.15988086	      4.30324601	     -4.30324601	     10.15988086	     -2.05716921	     16.62531791	      7.47296598	     -7.47296598	    -16.62531791	      2.05716921	    124.44515346	     41.98288468	   -124.44515346	     19.95468325	      0.96680064	      0.00000000	      0.00000000	     -0.00000000	     -0.00000000	      0.00000000
      0.22110553	    -10.16161468	      4.30398037	     -4.30398037	     10.16161468	     -2.05752027	     16.62815507	      7.47424126	     -7.47424126	    -16.62815507	      2.05752027	    124.44833714	     41.99004918	   -124.44833714	     19.95463486	      0.96656021	      0.00000000	      0.00000000	     -0.00000000	     -0.00000000	      0.00000000
      0.24120603	    -10.16370963	      4.30486770	     -4.30486770	     10.16370963	     -2.05794445	     16.63158319	      7.47578218	     -7.47578218	    -16.63158319	      2.05794445	    124.45218467	     41.99870600	   -124.45218467	     19.95457633	      0.96627181	      0.00000000	      0.00000000	     -0.00000000	     -0.00000000	      0.00000000
      0.26130653	    -10.16619560	      4.30592064	     -4.30592064	     10.16619560	     -2.05844781	     16.63565114	      7.47761070	     -7.47761070	    -16.63565114	      2.05844781	    124.45675063	     42.00897855	   -124.45675063	     19.95450680	      0.96593176	      0.00000000	      0.00000000	     -0.00000000	     -0.00000000	      0.00000000
      0.28140704	    -10.16910137	      4.30715139	     -4.30715139	     10.16910137	     -2.05903617	     16.64040607	      7.47974800	     -7.47974800	    -16.64040607	      2.05903617	    124.46208753	     42.02098587	   -124.46208753	     19.95442542	      0.96553674	      0.00000000	      0.00000000	     -0.00000000	     -0.00000000	      0.00000000
      0.30150754	    -10.17245475	      4.30857172	     -4.30857172	     10.17245475	     -2.05971516	     16.64589343	      7.48221453	     -7.48221453	    -16.64589343	      2.05971516	    124.46824589	     42.03484276	   -124.46824589	     19.95433135	      0.96508381	      0.00000000	      0.00000000	     -0.00000000	     -0.00000000	      0.00000000
      0.32160804	    -10.17628253	      4.31019298	     -4.31019298	     10.17628253	     -2.06049021	     16.65215709	      7.48503001	     -7.48503001	    -16.65215709	      2.06049021	    124.47527412	     42.05065999	   -124.47527412	     19.95422378	      0.96457025	      0.00000000	      0.00000000	     -0.00000000	     -0.00000000	      0.00000000
      0.34170854	    -10.18061064	      4.31202617	     -4.31202617	     10.18061064	     -2.06136657	     16.65923949	      7.48821350	     -7.48821350	    -16.65923949	      2.06136657	    124.48321841	     42.06854473	   -124.48321841	     19.95410193	      0.96399319	      0.00000000	      0.00000000	     -0.00000000	     -0.00000000	      0.00000000
      0.36180905	    -10.18546428	      4.31408194	     -4.31408194	     10.18546428	     -2.06234933	     16.66718184	      7.49178353	     -7.49178353	    -16.66718184	      2.06234933	    124.49212240	     42.08860106	   -124.49212240	     19.95396507	      0.96334880	      0.00000000	      0.00000000	     -0.00000000	     -0.00000000	      0.00000000
      0.38190955	    -10.19086807	      4.31637073	     -4.31637073	     10.19086807	     -2.06344349	     16.67602443	      7.49575821	     -7.49575821	    -16.67602443	      2.06344349	    124.50202688	     42.11093070	   -124.50202688	     19.95381258	      0.96263128	      0.00000000	      0.00000000	     -0.00000000	     -0.00000000	      0.00000000
      0.40201005	    -10.19684626	      4.31890281	     -4.31890281	     10.19684626	     -2.06465395	     16.68580695	      7.50015539	     -7.50015539	    -16.68580695	      2.06465395	    124.51296928	     42.13563391	   -124.51296928	     19.95364399	      0.96183141	      0.00000000	      0.00000000	     -0.00000000	     -0.00000000	      0.00000000
      0.42211055	    -10.20342298	      4.32168840	     -4.32168840	     10.20342298	     -2.06598560	     16.69656890	      7.50499281	     -7.50499281	    -16.69656890	      2.06598560	    124.52498321	     42.16281038	   -124.52498321	     19.95345900	      0.96093490	      0.00000000	      0.00000000	     -0.00000000	     -0.00000000	      0.00000000
      0.44221106	    -10.21062254	      4.32473779	     -4.32473779	     10.21062254	     -2.06744336	     16.70835003	      7.51028835	     -7.51028835	    -16.70835003	      2.06744336	    124.53809763	     42.19256054	   -124.53809763	     19.95325760	      0.95992053	      0.00000000	      0.00000000	     -0.00000000	     -0.00000000	      0.00000000
      0.46231156	    -10.21846989	      4.32806156	     -4.32806156	     10.21846989	     -2.06903229	     16.72119120	      7.51606036	     -7.51606036	    -16.72119120	      2.06903229	    124.55233542	     42.22498755	   -124.55233542	     19.95304017	      0.95875773	      0.00000000	      0.00000000	     -0.00000000	     -0.00000000	      0.00000000
      0.48241206	    -10.22671081	      4.33155202	     -4.33155202	     10.22671081	     -2.07070091	     16.73467638	      7.52212186	     -7.52212186	    -16.73467638	      2.07070091	    124.56795364	     42.25904086	   -124.56795364	     19.95281499	      0.96084372	      0.00000000	      0.00000000	     -0.00000000	     -0.00000000	      0.00000000
      0.50251256	    -10.23590758	      4.33544734	     -4.33544734	     10.23590758	     -2.07256307	     16.74972570	      7.52888643	     -7.52888643	    -16.74972570	      2.07256307	    124.58446573	     42.29704396	   -124.58446573	     19.95256262	      0.95932243	      0.00000000	      0.00000000	     -0.00000000	     -0.00000000	      0.00000000
      0.52261307	    -10.24579930	      4.33963701	     -4.33963701	     10.24579930	     -2.07456594	     16.76591221	      7.53616215	     -7.53616215	    -16.76591221	      2.07456594	    124.60223919	     42.33791876	   -124.60223919	     19.95228906	      0.95769648	      0.00000000	      0.00000000	     -0.00000000	     -0.00000000	      0.00000000
      0.54271357	    -10.25640820	      4.34413044	     -4.34413044	     10.25640820	     -2.07671403	     16.78327229	      7.54396539	     -7.54396539	    -16.78327229	      2.07671403	    124.62129244	     42.38175708	   -124.62129244	     19.95199304	      0.95591034	      0.00000000	      0.00000000	     -0.00000000	     -0.00000000	      0.00000000
      0.56281407	    -10.26775220	      4.34893522	     -4.34893522	     10.26775220	     -2.07901096	     16.80183526	      7.55230932	     -7.55230932	    -16.80183526	      2.07901096	    124.64164288	     42.42863301	   -124.64164288	     19.95167501	      0.95396175	      0.00000000	      0.00000000	     -0.00000000	     -0.00000000	      0.00000000
      0.58291457	    -10.27985002	      4.35405929	     -4.35405929	     10.27985002	     -2.08146052	     16.82163176	      7.56120771	     -7.56120771	    -16.82163176	      2.08146052	    124.66329300	     42.47862388	   -124.66329300	     19.95133656	      0.95183150	      0.00000000	      0.00000000	     -0.00000000	     -0.00000000	      0.00000000
